<svg width="159" height="53" viewBox="0 0 159 53" fill="none" xmlns="http://www.w3.org/2000/svg">
<path fill-rule="evenodd" clip-rule="evenodd" d="M0 26.151V52.302L22.9495 52.3069C35.572 52.3096 71.2097 52.3107 102.145 52.3096L158.391 52.3074L158.529 26.1537L158.667 0H79.3336H0V26.151ZM45.6337 26.4206V50.6844H23.6128H1.59187V26.4206V2.15678H23.6128H45.6337V26.4206ZM10.0574 11.8871C9.00946 12.952 8.97762 13.4896 9.12885 27.5718L9.28592 42.1538L10.5387 43.1842C11.6934 44.1337 12.7801 44.2141 24.4294 44.2141C38.0404 44.2141 38.7462 44.0723 38.7276 41.345C38.7085 38.6361 38.4517 38.5703 26.684 38.2829L15.6534 38.0133L15.5107 25.3735C15.3886 14.5631 15.2422 12.5924 14.4998 11.7588C13.3494 10.4669 11.3999 10.523 10.0574 11.8871ZM62.2915 17.5681C62.4688 18.0372 62.6136 21.4341 62.6136 25.1168V31.8126H68.7322C73.7047 31.8126 74.9092 31.9652 75.1592 32.6284C75.329 33.077 75.1724 33.8049 74.8121 34.246C73.8305 35.4478 60.9225 35.409 59.7329 34.2007C59.0505 33.5067 58.8992 31.9107 58.8992 25.3934C58.8992 21.0157 59.0584 17.2721 59.2532 17.0747C59.9287 16.3883 61.971 16.7199 62.2915 17.5681ZM93.5394 17.4576C100.685 20.5644 100.685 31.1984 93.5394 34.3053C90.8083 35.4926 85.5435 35.2478 83.0585 33.8173C79.9072 32.004 78.5323 29.5932 78.5323 25.8814C78.5323 22.031 79.9661 19.6359 83.292 17.9283C86.0513 16.5118 90.8566 16.2907 93.5394 17.4576ZM118.289 17.6598C120.761 18.9414 121.483 20.2118 120.378 21.3344C119.597 22.1286 119.348 22.107 117.357 21.075C112.185 18.3936 106.125 20.9871 106.125 25.8814C106.125 27.7492 107.629 30.1211 109.404 31.0539C111.829 32.328 116.578 31.8606 117.887 30.2182C119.648 28.0085 119.192 27.5599 115.013 27.3879C111.305 27.2353 111.166 27.1809 111.166 25.8814C111.166 24.5593 111.254 24.5302 115.751 24.3787C121.113 24.1975 122.043 24.7378 122.043 28.0355C122.043 32.114 118.181 35.0477 112.809 35.0477C109.2 35.0477 107.405 34.3775 105.186 32.2029C100.79 27.8937 102.285 19.9848 107.972 17.4667C110.342 16.4169 116.102 16.5247 118.289 17.6598ZM141.698 17.9569C144.406 19.4121 146.452 22.822 146.452 25.8814C146.452 28.9408 144.406 32.3507 141.698 33.806C137.057 36.2998 129.892 34.9696 127.116 31.0992C126.265 29.9135 126.023 28.7591 126.023 25.8814C126.023 23.0037 126.265 21.8493 127.116 20.6636C129.892 16.7933 137.057 15.4631 141.698 17.9569ZM84.5342 21.0028C82.4478 22.2958 81.5643 25.0079 82.322 27.7966C83.7839 33.1767 93.2221 33.187 94.9679 27.8101C95.8296 25.1573 94.8893 22.3632 92.6719 20.9887C90.4788 19.63 86.7395 19.6364 84.5342 21.0028ZM132.125 20.8318C129.989 22.3718 129.507 23.3057 129.489 25.9429C129.475 27.9298 129.756 28.7187 130.882 29.8628C132.599 31.6077 134.095 32.0309 137.26 31.6686C140.778 31.2658 142.473 29.384 142.473 25.8814C142.473 22.0547 140.744 20.3692 136.526 20.084C134.193 19.9265 133.132 20.1066 132.125 20.8318Z" fill="white"/>
</svg>
