<svg width="98" height="80" viewBox="0 0 98 80" fill="none" xmlns="http://www.w3.org/2000/svg">
<path d="M89.5656 11.5023H69.0856V7.83762C69.0856 3.51603 65.5701 0 61.2482 0H35.9004C31.5791 0 28.063 3.51576 28.063 7.83762V11.5023H7.58331C3.40185 11.5023 0 14.9038 0 19.085V72.4169C0 76.5981 3.40185 80 7.58331 80H89.5653C93.7468 80 97.1486 76.5981 97.1486 72.4169V19.085C97.1489 14.9041 93.7473 11.5023 89.5656 11.5023ZM34.6858 7.83762C34.6858 7.16768 35.231 6.62252 35.9007 6.62252H61.2485C61.9181 6.62252 62.4633 7.16768 62.4633 7.83762V11.5023H34.6858V7.83762ZM7.58358 18.1248H89.5656C90.0954 18.1248 90.5264 18.5555 90.5264 19.085V36.462C80.2646 40.2686 64.7862 42.5171 48.5465 42.5171C32.3425 42.5171 16.8853 40.2763 6.62252 36.4824V19.085C6.62278 18.5555 7.05377 18.1248 7.58358 18.1248ZM89.5656 73.3775H7.58358C7.05377 73.3775 6.62278 72.9468 6.62278 72.4169V43.4985C16.0156 46.5971 28.365 48.5338 41.8233 49.0191C41.8225 49.0575 41.8177 49.0946 41.8177 49.1335V50.5939C41.8177 53.3317 44.045 55.5589 46.783 55.5589H50.3664C53.1044 55.5589 55.3317 53.3317 55.3317 50.5939V49.1335C55.3317 49.0946 55.3264 49.0564 55.3261 49.0175C68.7928 48.5279 81.1404 46.5857 90.5269 43.4811V72.4172C90.5264 72.9468 90.0954 73.3775 89.5656 73.3775Z" fill="#2352DE"/>
</svg>
