<svg width="92" height="80" viewBox="0 0 92 80" fill="none" xmlns="http://www.w3.org/2000/svg">
<path d="M45.9192 31.2107C54.524 31.2107 61.5246 24.2102 61.5246 15.6054C61.5246 7.00053 54.524 0 45.9192 0C37.3144 0 30.3138 7.00053 30.3138 15.6054C30.3138 24.2102 37.3144 31.2107 45.9192 31.2107ZM45.9192 5.38116C51.5569 5.38116 56.1434 9.9677 56.1434 15.6054C56.1434 21.243 51.5569 25.8296 45.9192 25.8296C40.2815 25.8296 35.695 21.243 35.695 15.6054C35.695 9.9677 40.2815 5.38116 45.9192 5.38116Z" fill="#2352DE"/>
<path d="M77.4887 31.2104C82.9285 31.2104 87.3541 26.7848 87.3541 21.3449C87.3541 15.9051 82.9285 11.4795 77.4887 11.4795C72.0489 11.4795 67.6232 15.9051 67.6232 21.3449C67.6232 26.7848 72.0489 31.2104 77.4887 31.2104ZM77.4887 16.8607C79.9613 16.8607 81.973 18.8723 81.973 21.3449C81.973 23.8176 79.9613 25.8292 77.4887 25.8292C75.016 25.8292 73.0044 23.8176 73.0044 21.3449C73.0044 18.8723 75.016 16.8607 77.4887 16.8607Z" fill="#2352DE"/>
<path d="M79.6591 37.3091H75.4976C70.5938 37.3091 66.3606 40.2063 64.4316 44.3677C60.4602 40.0323 54.7556 37.3091 48.4267 37.3091H43.412C37.083 37.3091 31.3784 40.0323 27.407 44.3677C25.4778 40.2063 21.2446 37.3091 16.3408 37.3091H12.1794C5.46367 37.3091 0 42.7397 0 49.4149V69.0041C0 71.902 2.36663 74.2597 5.27569 74.2597H21.7289C22.0048 77.4705 24.7047 79.9996 27.986 79.9996H63.8526C67.1337 79.9996 69.8336 77.4705 70.1097 74.2597H86.3749C89.3877 74.2597 91.8386 71.8184 91.8386 68.8176V49.4149C91.8384 42.7397 86.3748 37.3091 79.6591 37.3091ZM5.38116 49.4149C5.38116 45.7069 8.43084 42.6902 12.1794 42.6902H16.3408C20.0893 42.6902 23.139 45.7069 23.139 49.4149V51.2572C21.3297 55.9682 21.704 58.7916 21.704 68.8785H5.38116V49.4149ZM64.7533 73.7178C64.7533 74.2145 64.3493 74.6184 63.8526 74.6184H27.9858C27.4891 74.6184 27.0852 74.2143 27.0852 73.7178V59.017C27.0852 50.0144 34.4093 42.6902 43.4118 42.6902H48.4265C57.4291 42.6902 64.7533 50.0144 64.7533 59.0169V73.7178ZM86.4573 68.8176C86.4573 68.9103 87.4603 68.8785 70.1344 68.8785C70.1344 58.7169 70.5059 55.9605 68.6994 51.2572V49.4149C68.6994 45.7069 71.7491 42.6902 75.4976 42.6902H79.6591C83.4076 42.6902 86.4573 45.7069 86.4573 49.4149V68.8176Z" fill="#2352DE"/>
<path d="M14.3497 31.2104C19.7896 31.2104 24.2152 26.7848 24.2152 21.3449C24.2152 15.9051 19.7896 11.4795 14.3497 11.4795C8.90993 11.4795 4.48428 15.9051 4.48428 21.3449C4.48428 26.7848 8.90993 31.2104 14.3497 31.2104ZM14.3497 16.8607C16.8224 16.8607 18.834 18.8723 18.834 21.3449C18.834 23.8176 16.8224 25.8292 14.3497 25.8292C11.8771 25.8292 9.86544 23.8176 9.86544 21.3449C9.86544 18.8723 11.8771 16.8607 14.3497 16.8607Z" fill="#2352DE"/>
</svg>
