<svg width="80" height="80" viewBox="0 0 80 80" fill="none" xmlns="http://www.w3.org/2000/svg">
<path d="M48.8686 15.4183C51.9439 12.934 52.6402 10.2784 52.6825 8.48794C52.7859 4.13216 49.3464 0.94466 48.9538 0.595753C47.9813 -0.269247 46.4916 -0.182059 45.6264 0.790597C44.7614 1.76325 44.8486 3.25278 45.8213 4.11794C45.8433 4.13763 48.0223 6.17638 47.9702 8.37622C47.9423 9.54825 47.2673 10.6523 45.9066 11.7515C42.8313 14.2358 42.135 16.8914 42.0927 18.6819C41.9891 23.0376 45.4288 26.2251 45.8213 26.5742C46.2714 26.9745 46.8333 27.1717 47.3928 27.1717C48.0422 27.1717 48.6886 26.9061 49.1533 26.3834C50.0183 25.4108 49.9358 23.9253 48.9631 23.0603C48.3445 22.4978 46.7511 20.6317 46.8053 18.7759C46.8395 17.6104 47.5144 16.512 48.8686 15.4183Z" fill="#2352DE"/>
<path d="M33.9147 15.4183C36.99 12.934 37.6863 10.2784 37.7286 8.48794C37.832 4.13216 34.3925 0.94466 33.9998 0.595753C33.0275 -0.269247 31.5377 -0.182059 30.6725 0.790597C29.8075 1.76325 29.8947 3.25278 30.8673 4.11794C30.8894 4.13763 33.0684 6.17638 33.0163 8.37622C32.9884 9.54825 32.3134 10.6523 30.9527 11.7515C27.8773 14.2358 27.1811 16.8914 27.1388 18.6819C27.0353 23.0376 30.4748 26.2251 30.8673 26.5742C31.3175 26.9745 31.8794 27.1717 32.4389 27.1717C33.0883 27.1717 33.7347 26.9061 34.1994 26.3834C35.0644 25.4108 34.9819 23.9253 34.0092 23.0603C33.3906 22.4978 31.7972 20.6317 31.8514 18.7759C31.8856 17.6104 32.5605 16.512 33.9147 15.4183Z" fill="#2352DE"/>
<path d="M67.6553 38.4608H64.8659V36.7324C64.8659 35.4308 63.8108 34.3755 62.5091 34.3755H2.35688C1.05531 34.3755 0 35.4306 0 36.7324V49.1711C0 60.1622 6.08359 69.8267 15.217 75.2864H2.35828C1.05672 75.2864 0.00140626 76.3416 0.00140626 77.6433C0.00140626 78.945 1.05641 80.0002 2.35828 80.0002H62.5092C63.8108 80.0002 64.8661 78.945 64.8661 77.6433C64.8661 76.3416 63.8109 75.2864 62.5092 75.2864H49.6491C54.8428 72.1817 59.0502 67.7178 61.7133 62.4225H67.6555C74.2617 62.4225 79.6364 57.0478 79.6364 50.4416C79.6364 43.8353 74.2616 38.4608 67.6553 38.4608ZM60.1524 49.1711C60.1522 63.5711 47.7174 75.2864 32.433 75.2864C17.1486 75.2864 4.71375 63.5711 4.71375 49.1711V39.0892H60.1522V49.1711H60.1524ZM67.6553 57.7089H63.5997C64.4233 54.9966 64.8659 52.1321 64.8659 49.1711V43.1742H67.6553C71.6625 43.1742 74.9227 46.4344 74.9227 50.4416C74.9227 54.4488 71.6625 57.7089 67.6553 57.7089Z" fill="#2352DE"/>
<path d="M18.9608 15.4183C22.0361 12.934 22.7324 10.2784 22.7747 8.48794C22.8781 4.13216 19.4386 0.94466 19.0459 0.595753C18.0734 -0.269247 16.5838 -0.182059 15.7186 0.790597C14.8536 1.7631 14.9408 3.25278 15.9134 4.11794C15.9355 4.13763 18.1145 6.17638 18.0624 8.37622C18.0345 9.54825 17.3595 10.6523 15.9988 11.7515C12.9234 14.2358 12.2272 16.8914 12.1849 18.6819C12.0816 23.0375 15.5211 26.225 15.9136 26.574C16.3627 26.9734 16.9219 27.1698 17.4791 27.1698C18.1286 27.1698 18.7753 26.9028 19.2411 26.3792C20.1061 25.4065 20.0189 23.917 19.0463 23.0519C19.0242 23.0322 16.8452 20.9934 16.8973 18.7936C16.9248 17.6215 17.5999 16.5173 18.9608 15.4183Z" fill="#2352DE"/>
</svg>
