<svg width="81" height="80" viewBox="0 0 81 80" fill="none" xmlns="http://www.w3.org/2000/svg">
<path d="M71.6863 0H27.7647C23.0075 0 19.1373 3.87027 19.1373 8.62745V28.2353H8.62745C3.87027 28.2353 0 32.1056 0 36.8627V61.9608C0 66.718 3.87027 70.5882 8.62745 70.5882H23.0544L28.6304 78.9522C29.0668 79.6067 29.8016 80 30.5882 80C31.3749 80 32.1096 79.6067 32.546 78.9522L38.122 70.5882H52.549C57.3062 70.5882 61.1765 66.718 61.1765 61.9608V42.3529H71.6863C76.4435 42.3529 80.3137 38.4827 80.3137 33.7255V8.62745C80.3137 3.87027 76.4435 0 71.6863 0V0ZM56.4706 61.9608C56.4706 64.1231 54.7114 65.8824 52.549 65.8824H36.8627C36.0761 65.8824 35.3413 66.2756 34.9049 66.9302L30.5882 73.4052L26.2715 66.9302C25.8351 66.2756 25.1004 65.8824 24.3137 65.8824H8.62745C6.4651 65.8824 4.70588 64.1231 4.70588 61.9608V36.8627C4.70588 34.7004 6.4651 32.9412 8.62745 32.9412H19.1373V33.7255C19.1373 35.1373 19.4803 36.4695 20.0839 37.6471H11.7647C10.4653 37.6471 9.41177 38.7006 9.41177 40C9.41177 41.2995 10.4653 42.3529 11.7647 42.3529H42.1918L45.3291 47.0588H11.7647C10.4653 47.0588 9.41177 48.1123 9.41177 49.4118C9.41177 50.7112 10.4653 51.7647 11.7647 51.7647H49.7255C50.5123 51.7647 51.2469 51.3715 51.6831 50.7169L56.4706 43.5358V61.9608ZM75.6078 33.7255C75.6078 35.8878 73.8486 37.6471 71.6863 37.6471H56C55.2132 37.6471 54.4786 38.0403 54.0424 38.6949L49.7255 45.1699L45.4086 38.6949C44.9724 38.0403 44.2376 37.6471 43.451 37.6471H27.7647C25.6024 37.6471 23.8431 35.8878 23.8431 33.7255V8.62745C23.8431 6.4651 25.6024 4.70588 27.7647 4.70588H71.6863C73.8486 4.70588 75.6078 6.4651 75.6078 8.62745V33.7255Z" fill="#2352DE"/>
<path d="M49.4117 56.4707H11.7647C10.4652 56.4707 9.41174 57.5242 9.41174 58.8236C9.41174 60.1231 10.4652 61.1766 11.7647 61.1766H49.4117C50.7112 61.1766 51.7647 60.1231 51.7647 58.8236C51.7647 57.5242 50.7112 56.4707 49.4117 56.4707Z" fill="#2352DE"/>
<path d="M61.0443 16.3827L54.6811 15.458L51.8355 9.6919C51.4391 8.88876 50.6212 8.38037 49.7255 8.38037C48.8298 8.38037 48.0119 8.88876 47.6155 9.6919L44.7699 15.458L38.4068 16.3827C37.5205 16.5114 36.784 17.1322 36.5073 17.9841C36.2304 18.8359 36.4613 19.771 37.1026 20.3961L41.707 24.8841L40.6199 31.2215C40.4686 32.1043 40.8315 32.9964 41.5561 33.523C42.2805 34.0491 43.241 34.1187 44.0341 33.7021L49.7255 30.7098L55.4168 33.7021C55.7611 33.883 56.137 33.9724 56.5115 33.9724C56.9994 33.9724 57.485 33.8208 57.8948 33.5231C58.6193 32.9967 58.9823 32.1044 58.8309 31.2216L57.7439 24.8842L62.3482 20.3962C62.9897 19.7711 63.2206 18.8361 62.9437 17.9843C62.667 17.1324 61.9307 16.5115 61.0443 16.3827V16.3827ZM53.5733 22.3779C53.0187 22.9184 52.7657 23.6972 52.8966 24.4605L53.3868 27.3181L50.8206 25.9688C50.4777 25.7887 50.1017 25.6985 49.7257 25.6985C49.3497 25.6985 48.9735 25.7885 48.6308 25.9688L46.0645 27.3181L46.5547 24.4605C46.6857 23.6972 46.4326 22.9184 45.878 22.3779L43.8019 20.3542L46.6712 19.9372C47.4377 19.8259 48.1001 19.3446 48.4428 18.6502L49.726 16.0502L51.0091 18.6502C51.3519 19.3446 52.0143 19.8259 52.7807 19.9372L55.6501 20.3542L53.5733 22.3779Z" fill="#2352DE"/>
</svg>
