<svg width="110" height="37" viewBox="0 0 110 37" fill="none" xmlns="http://www.w3.org/2000/svg">
<path fill-rule="evenodd" clip-rule="evenodd" d="M0 18.1299V36.2598L15.9104 36.2632C24.6612 36.2651 49.3681 36.2658 70.8149 36.2651L109.809 36.2636L109.905 18.1318L110 0H55.0002H0V18.1299ZM31.6368 18.3168V35.1384H16.3702H1.10361V18.3168V1.49525H16.3702H31.6368V18.3168ZM6.9726 8.24107C6.24606 8.97935 6.22399 9.35204 6.32883 19.1149L6.43772 29.2243L7.30626 29.9386C8.10674 30.5969 8.86014 30.6526 16.9363 30.6526C26.3726 30.6526 26.8618 30.5543 26.849 28.6636C26.8357 26.7855 26.6577 26.7399 18.4994 26.5407L10.8522 26.3538L10.7532 17.5909C10.6686 10.0963 10.5671 8.73002 10.0524 8.1521C9.25486 7.25645 7.90331 7.29533 6.9726 8.24107ZM43.1853 12.1796C43.3082 12.5048 43.4086 14.8598 43.4086 17.4129V22.0549H47.6505C51.0978 22.0549 51.9329 22.1607 52.1062 22.6205C52.2239 22.9315 52.1153 23.4362 51.8656 23.742C51.185 24.5752 42.2362 24.5483 41.4114 23.7106C40.9384 23.2295 40.8335 22.123 40.8335 17.6047C40.8335 14.5697 40.9439 11.9743 41.0789 11.8375C41.5472 11.3617 42.9631 11.5916 43.1853 12.1796ZM64.8488 12.1029C69.8029 14.2568 69.8029 21.6292 64.8488 23.7831C62.9554 24.6062 59.3054 24.4365 57.5826 23.4448C55.3979 22.1876 54.4447 20.5163 54.4447 17.943C54.4447 15.2736 55.4387 13.6131 57.7445 12.4293C59.6574 11.4473 62.9888 11.294 64.8488 12.1029ZM82.0073 12.2431C83.7209 13.1317 84.2215 14.0124 83.4553 14.7906C82.9138 15.3413 82.7416 15.3263 81.361 14.6108C77.7754 12.7519 73.5739 14.5499 73.5739 17.943C73.5739 19.2379 74.6165 20.8823 75.8474 21.529C77.5285 22.4123 80.8209 22.0882 81.7281 20.9496C82.9491 19.4177 82.6331 19.1067 79.7357 18.9874C77.1651 18.8816 77.0687 18.8439 77.0687 17.943C77.0687 17.0264 77.1301 17.0062 80.2474 16.9012C83.9651 16.7756 84.61 17.1501 84.61 19.4364C84.61 22.2639 81.9319 24.2978 78.208 24.2978C75.7061 24.2978 74.4612 23.8332 72.9232 22.3256C69.8754 19.3381 70.912 13.855 74.8545 12.1093C76.4977 11.3815 80.491 11.4562 82.0073 12.2431ZM98.2359 12.4491C100.114 13.458 101.532 15.822 101.532 17.943C101.532 20.064 100.114 22.428 98.2359 23.4369C95.0189 25.1658 90.0515 24.2436 88.1265 21.5604C87.5364 20.7384 87.369 19.938 87.369 17.943C87.369 15.948 87.5364 15.1476 88.1265 14.3256C90.0515 11.6424 95.0189 10.7202 98.2359 12.4491ZM58.6057 14.5607C57.1592 15.4571 56.5467 17.3374 57.072 19.2708C58.0855 23.0007 64.6288 23.0078 65.8391 19.2801C66.4365 17.441 65.7846 15.5039 64.2473 14.551C62.7269 13.609 60.1345 13.6135 58.6057 14.5607ZM91.5995 14.4422C90.1181 15.5099 89.7845 16.1573 89.7719 17.9856C89.7624 19.3631 89.957 19.91 90.7376 20.7032C91.928 21.9129 92.9651 22.2063 95.1594 21.9551C97.598 21.6759 98.773 20.3713 98.773 17.943C98.773 15.2901 97.5745 14.1215 94.6506 13.9238C93.0331 13.8146 92.2974 13.9395 91.5995 14.4422Z" fill="white"/>
</svg>
