<svg width="44" height="44" viewBox="0 0 44 44" fill="none" xmlns="http://www.w3.org/2000/svg">
<path d="M38.8438 0H5.15625C2.31309 0 0 2.31309 0 5.15625V38.8438C0 41.6869 2.31309 44 5.15625 44H38.8438C41.6869 44 44 41.6869 44 38.8438V5.15625C44 2.31309 41.6869 0 38.8438 0ZM40.5625 38.8438C40.5625 39.7915 39.7915 40.5625 38.8438 40.5625H29.0469V26.5547H34.357L35.2344 21.2266H29.0469V17.5312C29.0469 16.0725 30.1662 14.9531 31.625 14.9531H35.1484V9.625H31.625C27.2488 9.625 23.7206 13.1699 23.7206 17.5462V21.2266H18.5625V26.5547H23.7206V40.5625H5.15625C4.20853 40.5625 3.4375 39.7915 3.4375 38.8438V5.15625C3.4375 4.20853 4.20853 3.4375 5.15625 3.4375H38.8438C39.7915 3.4375 40.5625 4.20853 40.5625 5.15625V38.8438Z" fill="#2352DE"/>
</svg>
