<svg width="44" height="44" viewBox="0 0 44 44" fill="none" xmlns="http://www.w3.org/2000/svg">
<path d="M31.2188 0H12.7813C5.73366 0 0 5.73366 0 12.7813V31.2187C0 38.2663 5.73366 44 12.7813 44H31.2187C38.2663 44 44 38.2663 44 31.2188V12.7813C44 5.73366 38.2663 0 31.2188 0ZM40.5625 31.2187C40.5625 36.3709 36.3709 40.5625 31.2188 40.5625H12.7813C7.6291 40.5625 3.4375 36.3709 3.4375 31.2188V12.7813C3.4375 7.6291 7.6291 3.4375 12.7813 3.4375H31.2187C36.3709 3.4375 40.5625 7.6291 40.5625 12.7813V31.2187Z" fill="#2352DE"/>
<path d="M22 10.1406C15.4607 10.1406 10.1406 15.4607 10.1406 22C10.1406 28.5393 15.4607 33.8594 22 33.8594C28.5393 33.8594 33.8594 28.5393 33.8594 22C33.8594 15.4607 28.5393 10.1406 22 10.1406ZM22 30.4219C17.3562 30.4219 13.5781 26.6438 13.5781 22C13.5781 17.3562 17.3562 13.5781 22 13.5781C26.6438 13.5781 30.4219 17.3562 30.4219 22C30.4219 26.6438 26.6438 30.4219 22 30.4219Z" fill="#2352DE"/>
<path d="M34.0312 11.6875C34.9805 11.6875 35.75 10.918 35.75 9.96875C35.75 9.01951 34.9805 8.25 34.0312 8.25C33.082 8.25 32.3125 9.01951 32.3125 9.96875C32.3125 10.918 33.082 11.6875 34.0312 11.6875Z" fill="#2352DE"/>
</svg>
