<svg width="44" height="46" viewBox="0 0 44 46" fill="none" xmlns="http://www.w3.org/2000/svg">
<g clip-path="url(#clip0_20948:41)">
<path d="M43.3206 4.4923C42.7831 3.81675 41.9781 3.44482 41.0536 3.44482C40.5511 3.44482 40.0187 3.5535 39.4715 3.76845L2.22633 18.381C0.249764 19.1563 -0.0164409 20.3197 0.000679409 20.9441C0.0177997 21.5686 0.347786 22.7148 2.36396 23.3741C2.37605 23.3779 2.38813 23.3817 2.40022 23.3851L10.1259 25.6574L14.3039 37.9366C14.8736 39.6107 16.1522 40.6505 17.6414 40.6505C18.5803 40.6505 19.5038 40.2462 20.3121 39.4816L25.0907 34.9595L32.0218 40.6954C32.0225 40.6961 32.0235 40.6964 32.0241 40.6971L32.0899 40.7516C32.096 40.7565 32.1024 40.7616 32.1084 40.7665C32.8788 41.3806 33.7197 41.7049 34.5412 41.7053H34.5415C36.1465 41.7053 37.4244 40.4842 37.7967 38.5949L43.8993 7.62472C44.1444 6.38162 43.9389 5.26928 43.3206 4.4923ZM12.7104 25.2258L27.6155 17.3998L18.3346 27.5354C18.1825 27.7013 18.0747 27.9045 18.0217 28.1257L16.2321 35.576L12.7104 25.2258ZM18.5655 37.5323C18.5038 37.5906 18.4417 37.6427 18.3796 37.6906L20.0399 30.7792L23.0601 33.2789L18.5655 37.5323ZM41.3725 7.09857L35.27 38.0691C35.2112 38.3655 35.0236 39.0552 34.5412 39.0552C34.3028 39.0552 34.0034 38.9217 33.6969 38.6791L25.843 32.1797C25.842 32.1786 25.8407 32.1776 25.8393 32.1769L21.1661 28.3092L34.5875 13.6518C35.0172 13.1826 35.0561 12.4639 34.6798 11.9485C34.3032 11.433 33.6207 11.2709 33.0624 11.5641L10.9879 23.1547L3.1572 20.852L40.391 6.24396C40.7055 6.12044 40.9251 6.09456 41.0536 6.09456C41.1325 6.09456 41.2728 6.10422 41.3249 6.17012C41.3933 6.25603 41.4806 6.54895 41.3725 7.09857Z" fill="#2352DE"/>
</g>
<defs>
<clipPath id="clip0_20948:41">
<rect width="44" height="45.2222" fill="white"/>
</clipPath>
</defs>
</svg>
