<svg width="60" height="60" viewBox="0 0 60 60" fill="none" xmlns="http://www.w3.org/2000/svg">
<path d="M35.625 11.25H13.125C12.09 11.25 11.25 12.09 11.25 13.125C11.25 14.16 12.09 15 13.125 15H35.625C36.66 15 37.5 14.16 37.5 13.125C37.5 12.09 36.66 11.25 35.625 11.25Z" fill="#2352DE"/>
<path d="M28.125 18.75H13.125C12.09 18.75 11.25 19.59 11.25 20.625C11.25 21.66 12.09 22.5 13.125 22.5H28.125C29.16 22.5 30 21.66 30 20.625C30 19.59 29.16 18.75 28.125 18.75Z" fill="#2352DE"/>
<path d="M41.25 0H7.5C3.36375 0 0 3.36375 0 7.5V45C0 45.7275 0.42 46.3913 1.08 46.6987C1.33125 46.815 1.605 46.875 1.875 46.875C2.30625 46.875 2.73375 46.725 3.075 46.44L13.8038 37.5H41.25C45.3862 37.5 48.75 34.1362 48.75 30V7.5C48.75 3.36375 45.3862 0 41.25 0ZM45 30C45 32.0662 43.32 33.75 41.25 33.75H13.125C12.6862 33.75 12.2625 33.9038 11.925 34.185L3.75 40.9987V7.5C3.75 5.43375 5.43 3.75 7.5 3.75H41.25C43.32 3.75 45 5.43375 45 7.5V30Z" fill="#2352DE"/>
<path d="M52.5 15C51.465 15 50.625 15.84 50.625 16.875C50.625 17.91 51.465 18.75 52.5 18.75C54.57 18.75 56.25 20.4338 56.25 22.5V54.2212L49.92 49.1588C49.59 48.8963 49.1738 48.75 48.75 48.75H22.5C20.43 48.75 18.75 47.0662 18.75 45V43.125C18.75 42.09 17.91 41.25 16.875 41.25C15.84 41.25 15 42.09 15 43.125V45C15 49.1362 18.3637 52.5 22.5 52.5H48.09L56.9513 59.5912C57.2925 59.8612 57.7088 60 58.125 60C58.3988 60 58.6763 59.94 58.9388 59.8162C59.5875 59.5013 60 58.845 60 58.125V22.5C60 18.3637 56.6362 15 52.5 15Z" fill="#2352DE"/>
</svg>
