<svg width="60" height="60" viewBox="0 0 60 60" fill="none" xmlns="http://www.w3.org/2000/svg">
<path d="M37.2461 0.80931L35.2578 0.066386C35.0019 -0.049935 34.7498 -0.0133545 34.5047 0.17582C34.2587 0.365148 34.0927 0.649369 34.0073 1.02802L22.0487 57.4419C21.9634 57.8207 21.9901 58.1779 22.129 58.5125C22.2679 58.8477 22.476 59.0734 22.7543 59.1898L24.742 59.933C24.9985 60.0502 25.2497 60.0135 25.4955 59.824C25.7414 59.6338 25.9071 59.3505 25.9924 58.9724L37.9513 2.55765C38.0365 2.17899 38.01 1.82176 37.8709 1.48642C37.7319 1.15123 37.524 0.925478 37.2461 0.80931Z" fill="#2352DE"/>
<path d="M19 10.743C19 10.3523 18.891 10.0062 18.6734 9.70586L17.041 7.45121C16.8234 7.15067 16.573 7 16.2901 7C16.0072 7 15.7567 7.15083 15.5392 7.45121L0.326563 28.4632C0.108626 28.7637 0 29.1096 0 29.5003C0 29.891 0.108969 30.2369 0.326563 30.5373L15.5391 51.5493C15.7566 51.8503 16.0066 52 16.29 52C16.5733 52 16.8234 51.8498 17.0408 51.5493L18.6733 49.2959C18.8909 48.9955 18.9999 48.6495 18.9999 48.2583C18.9999 47.868 18.8909 47.5221 18.6733 47.2218L5.84372 29.5003L18.6734 11.7801C18.8914 11.4798 19 11.1337 19 10.743Z" fill="#2352DE"/>
<path d="M59.6736 28.4629L44.4597 7.45121C44.2422 7.15082 43.9916 7 43.7092 7C43.4258 7 43.1762 7.15082 42.9579 7.45121L41.326 9.70567C41.1085 10.0062 41 10.3516 41 10.7428C41 11.134 41.1084 11.4795 41.326 11.7799L54.1568 29.5004L41.326 47.2218C41.1085 47.5222 41 47.8682 41 48.2583C41 48.6497 41.1084 48.9955 41.326 49.2959L42.9579 51.5493C43.1762 51.8503 43.4259 52 43.7092 52C43.9917 52 44.2422 51.8498 44.4597 51.5493L59.6736 30.5377C59.8913 30.2373 60 29.8908 60 29.5001C60 29.1092 59.8913 28.7633 59.6736 28.4629Z" fill="#2352DE"/>
</svg>
